<?xml version="1.0" encoding="UTF-8"?>
<svg id="Camada_2" data-name="Camada 2" xmlns="http://www.w3.org/2000/svg" viewBox="0 0 1907.6 149.24">
  <defs>
    <style>
      .cls-1 {
        fill: #6db3e5;
        stroke-width: 0px;
      }
    </style>
  </defs>
  <g id="Camada_1-2" data-name="Camada 1">
    <path class="cls-1" d="M0,134.15V15.07c1.37-.64,1.54-2.07,2.15-3.21C7.33,2.15,18.09-2.09,28.49,1.48c5.04,1.73,8.55,5.41,11.66,9.57,12.01-14.11,24.02-14.61,36.62-1.68,2.57,2.64,2.91,0,3.85-1.09,6.25-7.27,15.07-9.84,23.85-6.87,5.1,1.72,8.71,5.3,12.06,9.89C121.05,4.27,127.2.37,135.29.25c8.31-.13,14.46,4.06,19.24,10.84.89-1.03,1.54-1.76,2.17-2.5,9.45-11.12,24.47-11.34,33.66-.16,2.46,3,3.11,1.73,4.87-.32,9.07-10.59,24.2-10.66,33.02.05,2.4,2.92,3.13,2.26,5.23-.15,9.2-10.61,23.76-10.5,32.98.28,2.18,2.55,2.86,2.37,4.92-.06,9.09-10.7,23.98-10.81,33-.18,2.29,2.7,3.05,2.53,5.27-.01,9.18-10.5,23.64-10.65,32.6-.11,2.92,3.43,3.68,2.24,5.88-.36,8.24-9.72,23.16-9.81,31.77-.42,1.1,1.2,2.13,2.46,3.21,3.72,13.53-14.45,23.11-14.45,38.39-.18.26-.2.61-.35.78-.61,7.62-12.21,26.55-13.68,35.55-.85,2.06,2.94,2.79.47,3.82-.74,6.05-7.15,13.58-9.7,22.77-7.41,5.74,1.43,9.58,5.41,13.12,9.83,10.76-14.24,27.47-14.24,38.65.56.34-.76.53-1.44.91-1.99,9.28-13.16,27.73-11.44,34.91-.44,1.36,2.09,2.15,1.54,3.62-.07,10.78-11.77,23.82-11.84,34.3-.16,1.71,1.91,2.32,1.85,3.99-.05,10.12-11.48,23.91-11.54,33.96-.13,1.86,2.11,2.51,2.13,4.29-.05,5.89-7.19,13.46-9.83,22.7-7.55,5.83,1.44,9.61,5.54,13.24,9.88,12.01-13.94,24.11-14.47,36.5-1.6,2.51,2.61,2.88.15,3.87-1,8.05-9.42,20.93-10.89,30.3-3.28,2.03,1.65,3.66,3.78,5.48,5.7,11.51-14.8,28.11-13.41,38.31.11.88-1.03,1.71-2.04,2.58-3.01,9.03-10.23,24.07-10.33,32.73.16,2.56,3.11,3.42,2.23,5.53-.22,8.84-10.3,23.95-10.08,32.79.24.8.93,1.1,2.46,2.9,2.59.8-.97,1.6-2.02,2.48-2.99,9.08-10,23.53-10.01,32.39.23,2.3,2.66,3.19,2.85,5.58.04,9.09-10.7,24.71-10.18,33.36.82.8,1.01,1.57,2.04,2.39,3.12,9.63-14.17,26.62-16.48,39.06-.95,4.46-6.63,10.56-10.53,18.66-10.66,8.38-.14,14.38,4.27,19.06,10.79,12.56-14.19,22.96-14.53,36.89-1.33,2.06,1.95,2.44.16,3.22-.86,2.91-3.83,6.63-6.49,11.31-7.71,10.58-2.77,18.5,1.33,24.66,9.7,12.99-15.84,29.08-12.43,38.4-.09.38-.31.85-.54,1.1-.92,8.34-12.6,26.93-12.69,35.26-.68,1.97,2.84,2.76.61,3.91-.67,9.9-11.07,24.05-11.1,33.72.08,1.71,1.97,2.32,2.42,4.31.16,9.99-11.44,23.79-11.38,33.98.05,1.51,1.7,2.09,2.36,3.97.21,10.32-11.77,23.75-11.77,34.22-.04,1.73,1.94,2.27,1.85,3.91-.1,9.68-11.48,24.15-11.58,33.95-.18,2.16,2.52,2.81,1.81,4.54-.3,6.05-7.4,15.02-9.87,23.79-6.92,5.11,1.72,8.64,5.4,11.85,9.53,9.5-13.1,26.36-15.43,38.41-.09.88-1.03,1.7-2.05,2.57-3.02,9.23-10.24,23.89-10.3,32.72.23,2.61,3.12,3.45,2.16,5.52-.27,8.77-10.29,24.04-10.07,32.78.24.79.93,1.08,2.47,2.63,2.61.34-.26.67-.4.84-.66,9.5-13.7,27.56-12.08,35.28-1.07,1.72,2.46,2.5,1.34,3.93-.29,9.99-11.36,23.99-11.37,33.97.14,2.13,2.46,2.72,1.48,4.26-.3,9.51-10.97,24.03-11.21,33.31-.29,2.47,2.91,3.19,2.23,5.23-.2,8.73-10.41,23.81-10.38,32.77-.15.85.97,1.67,1.98,2.55,3.02,9.56-12.64,25.86-15.76,38.51,0,4.52-6.56,10.58-10.57,18.72-10.62,8.28-.05,14.41,4.14,19.21,10.98,4.72-7.01,10.83-10.94,18.96-10.99,8.25-.05,14.31,4.23,18.99,10.74,10.3-13.74,26.94-14.84,38.16-.25.38-.29.88-.51,1.13-.89,8.22-12.52,26.74-12.85,35.26-.76,1.94,2.76,2.72.76,3.92-.59,9.93-11.11,24.12-11.2,33.69.01,2.15,2.52,2.98,1.98,4.61-.2,2.99-3.99,7.1-6.4,11.99-7.52,9.41-2.17,16.45,1.94,22.65,8.33v130.99c-.28.17-.6.31-.82.53-11.7,11.46-23.36,11.39-34.39-.51-2.21-2.38-2.73-.79-3.96.62-9.73,11.1-23.93,11.18-33.68-.03-2.1-2.41-2.78-2.06-4.61.16-6.18,7.48-14.87,9.87-23.77,6.95-5.1-1.68-8.69-5.29-11.82-9.49-10.52,13.73-26.89,14.79-38.58-.04-4.43,6.69-10.53,10.64-18.66,10.69-8.29.06-14.41-4.14-19.04-10.72-12.8,14.2-23.22,14.55-36.86,1.32-2.05-1.99-2.46-.18-3.23.84-2.91,3.83-6.62,6.51-11.3,7.72-10.56,2.73-18.52-1.24-24.82-9.9-.98,1.11-1.84,2.08-2.69,3.05-8.88,10.27-24.1,10.44-32.76.06-2.35-2.81-3.14-2.86-5.56-.05-8.98,10.45-23.75,10.37-32.65-.05-2.03-2.37-2.8-3.09-5.24-.18-8.98,10.71-23.88,10.67-32.99.05-1.91-2.23-2.56-2.98-4.93-.24-9.51,10.99-23.79,10.97-33.28.02-2.14-2.47-2.81-2.49-4.89.06-7.95,9.77-21.94,10.81-31.02,2.53-1.69-1.54-3.07-3.4-4.78-5.32-4.66,6.71-10.64,10.8-18.82,10.84-8.32.04-14.43-4.15-19.05-10.78-.69.65-1.09.95-1.4,1.34-9.83,12.36-24.88,12.81-34.86.79-2.19-2.64-2.76-1.29-4.17.4-9.28,11.07-24.62,11.06-33.76.07-.68-.81-.9-2.17-2.32-2.21-10.31,13.92-27.45,13.96-37.9-.21-.48.46-1.03.83-1.39,1.34-9.02,12.82-27.34,11.78-34.93.46-1.79-2.68-2.6-1.03-3.91.44-9.93,11.18-24.12,11.31-33.69.2-1.89-2.2-2.61-2.41-4.62-.05-9.36,10.99-23.92,11.08-33.32.23-2.03-2.35-2.72-2.76-4.94-.08-6.07,7.37-14.01,9.69-23.3,6.98-5.34-1.56-8.98-5.4-12.45-9.79-4.69,6.8-10.72,10.82-18.87,10.86-8.31.04-14.41-4.19-19.23-10.91-4.76,6.91-10.83,10.91-18.99,10.91-8.25,0-14.37-4.15-18.96-10.83-10.08,14.06-27.55,14.69-38.04.38-15.12,14.26-24.89,14.28-38.18.05-11.92,14.99-29,13.28-38.86-1.2-.83,1.08-1.6,2.11-2.39,3.12-8.65,11.01-24.26,11.52-33.36.84-2.35-2.76-3.24-2.71-5.58,0-8.85,10.26-23.29,10.24-32.41.3-.97-1.06-1.43-2.67-3.08-3.07-12.14,13.59-24.23,14.11-36.32,1.36-2.02-2.13-2.44-.79-3.56.56-6.23,7.56-14.13,10.16-23.63,7.48-5.36-1.51-9.14-5.21-12.33-9.61-12.35,15.56-29.19,12.83-38.31.1-9.94,13.42-26.57,14.82-38.15.11-.28.18-.65.3-.81.55-8.52,12.97-27.28,13.04-35.59.96-2-2.91-2.74-.61-3.83.65-9.32,10.88-24.37,11.2-33.36.39-2.38-2.86-3.12-2.34-5.26.11-9.21,10.59-23.93,10.49-32.99-.28-2.22-2.63-2.95-2.27-4.96.09-9.1,10.68-23.83,10.76-32.99.11-2.25-2.62-3-2.69-5.25.01-8.87,10.65-24.16,10.61-32.93-.15-2.47-3.03-3.22-2.1-5.18.26-7.85,9.44-21.73,10.4-30.72,2.29-1.7-1.54-3.09-3.4-4.65-5.14-11.22,14.57-27.91,13.83-38.23.05-13.36,14.35-23.83,14.37-38.27-.07-.74.9-1.46,1.79-2.2,2.66-9.01,10.56-24.1,10.8-33.06.15-2.58-3.07-3.41-2.27-5.5.24-8.41,10.11-23.79,10.07-32.47.17-.92-1.05-1.3-2.7-2.93-3.05-12.71,13.7-23.73,14.17-36.4,1.35-2.13-2.15-2.55-.55-3.62.66-10.09,11.33-24.05,11.36-34.03-.04-1.48-1.69-2.02-2.39-3.94-.26-10.6,11.77-23.77,11.79-34.24.08-1.72-1.92-2.28-1.9-3.95.05-9.88,11.51-24.29,11.65-33.95.23-2.19-2.59-2.85-1.74-4.54.29-6.02,7.26-14.65,9.75-23.32,7.05-5.32-1.65-9.07-5.32-12.32-9.67-9.12,12.57-25.78,15.95-38.39.09-.46.5-.93.95-1.33,1.46-9.66,12.03-24.75,12.42-34.59.58-2.64-3.18-3.16-.83-4.46.71-8.9,10.49-24.35,10.49-33.2.07-.79-.93-1.12-2.43-2.87-2.66-.49.6-1,1.23-1.51,1.86-10.48,12.82-28.64,11.07-36.41-3.49-.53-.99-.72-2.24-1.93-2.77Z"/>
  </g>
</svg>