<?xml version="1.0" encoding="utf-8"?>
<!-- Generator: Adobe Illustrator 28.1.0, SVG Export Plug-In . SVG Version: 6.00 Build 0)  -->
<svg version="1.1" id="Camada_2" xmlns="http://www.w3.org/2000/svg" xmlns:xlink="http://www.w3.org/1999/xlink" x="0px" y="0px"
	 viewBox="0 0 806 453" style="enable-background:new 0 0 806 453;" xml:space="preserve">
<style type="text/css">
	.st0{fill:none;}
	.st1{fill:#35BAD3;}
	.st2{opacity:0.1;fill:url(#SVGID_1_);stroke:#0CABE1;stroke-width:14;stroke-miterlimit:10;}
</style>
<pattern  x="-537" y="-329" width="48" height="48" patternUnits="userSpaceOnUse" id="_x36__dpi_30_x25__2" viewBox="3.6 -51.6 48 48" style="overflow:visible;">
	<g>
		<rect x="3.6" y="-51.6" class="st0" width="48" height="48"/>
		<g>
			<circle class="st1" cx="27.6" cy="-3.6" r="3.6"/>
			<circle class="st1" cx="51.6" cy="-3.6" r="3.6"/>
			<circle class="st1" cx="27.6" cy="-27.6" r="3.6"/>
			<circle class="st1" cx="51.6" cy="-27.6" r="3.6"/>
			<circle class="st1" cx="39.6" cy="-15.6" r="3.6"/>
			<circle class="st1" cx="15.6" cy="-15.6" r="3.6"/>
			<circle class="st1" cx="39.6" cy="-39.6" r="3.6"/>
			<circle class="st1" cx="15.6" cy="-39.6" r="3.6"/>
		</g>
		<g>
			<circle class="st1" cx="3.6" cy="-3.6" r="3.6"/>
			<circle class="st1" cx="3.6" cy="-27.6" r="3.6"/>
		</g>
		<g>
			<circle class="st1" cx="27.6" cy="-51.6" r="3.6"/>
			<circle class="st1" cx="51.6" cy="-51.6" r="3.6"/>
		</g>
		<g>
			<circle class="st1" cx="3.6" cy="-51.6" r="3.6"/>
		</g>
	</g>
</pattern>
<pattern  id="SVGID_1_" xlink:href="#_x36__dpi_30_x25__2" patternTransform="matrix(1.4492 -0.1606 0.1808 1.6316 4360.9468 3114.2581)">
</pattern>
<path class="st2" d="M166.95,117.44c23.19-29.9,78.8-27.54,115.78,24.82c7.76-21.7,20.51-38.59,35.58-49.15
	c18.15-12.72,38.47-11.27,49.54-11.24c28.99,0.09,50.3,10.86,60.1,16.66c2.6-2.34,41.96-36.59,91.36-25.6
	c28.09,6.25,44.39,23.77,50.03,30.52c68.9-33.04,135.1,12.33,145.5,61.37c8.87,41.83-19.77,100.86-74.95,123.21
	c-4.08,6.43-22.37,33.78-55.4,38.99c-42.95,6.78-73.71-29.73-76.94-33.71c-1.78,3.45-14.18,26.59-39.04,30.14
	c-29.41,4.19-49.48-22.86-50.92-24.86c-0.56,1.64-12.84,36-43.73,40.04c-21.63,2.83-43.51-10.38-55.75-33.71
	c-22.21,38.73-57.11,54.84-83.95,42.15c-13.86-6.55-22.95-19.55-28.34-29.71c-24.73,14.82-54.8,3.28-68.05-22.96
	c-14.9-29.51-5.54-71.66,23.11-87.03C149.66,173.8,151.23,137.72,166.95,117.44z"/>
</svg>
