<svg id="visual" viewBox="0 0 960 540" width="960" height="540" xmlns="http://www.w3.org/2000/svg" xmlns:xlink="http://www.w3.org/1999/xlink" version="1.1"><rect x="0" y="0" width="960" height="540" fill="#f2f3e8"></rect><path d="M0 318L11.5 328.5C23 339 46 360 68.8 369.5C91.7 379 114.3 377 137.2 375.3C160 373.7 183 372.3 205.8 363C228.7 353.7 251.3 336.3 274.2 332C297 327.7 320 336.3 342.8 344.5C365.7 352.7 388.3 360.3 411.2 361C434 361.7 457 355.3 480 348.8C503 342.3 526 335.7 548.8 340.7C571.7 345.7 594.3 362.3 617.2 368.2C640 374 663 369 685.8 358C708.7 347 731.3 330 754.2 325.2C777 320.3 800 327.7 822.8 336.3C845.7 345 868.3 355 891.2 361C914 367 937 369 948.5 370L960 371L960 541L948.5 541C937 541 914 541 891.2 541C868.3 541 845.7 541 822.8 541C800 541 777 541 754.2 541C731.3 541 708.7 541 685.8 541C663 541 640 541 617.2 541C594.3 541 571.7 541 548.8 541C526 541 503 541 480 541C457 541 434 541 411.2 541C388.3 541 365.7 541 342.8 541C320 541 297 541 274.2 541C251.3 541 228.7 541 205.8 541C183 541 160 541 137.2 541C114.3 541 91.7 541 68.8 541C46 541 23 541 11.5 541L0 541Z" fill="#83f3f3" stroke-linecap="round" stroke-linejoin="miter"></path></svg>